<svg width="24" height="24" viewBox="0 0 24 24" fill="none" xmlns="http://www.w3.org/2000/svg">
<path d="M6.2488 7.57095C6.11405 7.57095 5.98482 7.66126 5.88953 7.822C5.79425 7.98274 5.74072 8.20075 5.74072 8.42808C5.74072 8.6554 5.79425 8.87341 5.88953 9.03416C5.98482 9.1949 6.11405 9.2852 6.2488 9.2852H12.3338C12.4686 9.2852 12.5978 9.1949 12.6931 9.03416C12.7883 8.87341 12.8419 8.6554 12.8419 8.42808C12.8419 8.20075 12.7883 7.98274 12.6931 7.822C12.5978 7.66126 12.4686 7.57095 12.3338 7.57095H6.2488Z" fill="black"/>
<path d="M6.63635 11.8571C6.39881 11.8571 6.17101 11.9475 6.00305 12.1082C5.83508 12.2689 5.74072 12.4869 5.74072 12.7143C5.74072 12.9416 5.83508 13.1596 6.00305 13.3204C6.17101 13.4811 6.39881 13.5714 6.63635 13.5714H17.3734C17.6109 13.5714 17.8387 13.4811 18.0067 13.3204C18.1746 13.1596 18.269 12.9416 18.269 12.7143C18.269 12.4869 18.1746 12.2689 18.0067 12.1082C17.8387 11.9475 17.6109 11.8571 17.3734 11.8571H6.63635Z" fill="black"/>
<path d="M12 0C5.75124 0.000495761 0.535862 4.60944 0.0385119 10.5701C0.0153152 10.8832 0.010031 11.1974 0 11.4842V22.6285C0 23.205 0.396906 23.7066 0.886885 23.9008C1.37686 24.095 2.02824 24.0087 2.45423 23.6011L5.2968 20.8824C7.28282 22.1767 9.58442 22.9664 12 22.9666C18.6172 22.9666 24 17.8163 24 11.4841C24 5.152 18.6172 0 12 0ZM12 1.71425C17.6492 1.71425 22.2088 6.07856 22.2088 11.4841C22.2088 16.8897 17.6492 21.2523 12 21.2523C9.70779 21.2522 7.48215 20.5156 5.68166 19.1581C5.3252 18.8892 4.81491 18.9179 4.49391 19.225L1.79128 21.8115V11.4841C1.80068 11.2129 1.81322 10.9415 1.82451 10.6705C2.24966 5.58613 6.66923 1.71467 12 1.71425Z" fill="black"/>
</svg>
