<svg width="30" height="30" viewBox="0 0 30 30" fill="none" xmlns="http://www.w3.org/2000/svg">
<g filter="url(#filter0_d_769:4903)">
<rect x="6" y="5" width="16" height="16" rx="4" fill="#F0F2F2"/>
<path d="M14.6968 13.0001L18.4069 9.27343C18.6057 9.07467 18.6057 8.75997 18.4069 8.57778C18.2082 8.37902 17.8935 8.37902 17.7113 8.57778L14.0011 12.3045L10.2744 8.57778C10.0757 8.37902 9.76095 8.37902 9.57876 8.57778C9.38 8.77654 9.38 9.09124 9.57876 9.27343L13.2889 13.0001L9.57876 16.7268C9.38 16.9256 9.38 17.2403 9.57876 17.4225C9.67813 17.5219 9.81064 17.5716 9.92658 17.5716C10.0425 17.5716 10.175 17.5219 10.2744 17.4225L14.0011 13.6958L17.7278 17.4225C17.8272 17.5219 17.9597 17.5716 18.0757 17.5716C18.1916 17.5716 18.3241 17.5219 18.4235 17.4225C18.6222 17.2237 18.6222 16.909 18.4235 16.7268L14.6968 13.0001Z" fill="#6727F2"/>
</g>
<defs>
<filter id="filter0_d_769:4903" x="0" y="0" width="30" height="30" filterUnits="userSpaceOnUse" color-interpolation-filters="sRGB">
<feFlood flood-opacity="0" result="BackgroundImageFix"/>
<feColorMatrix in="SourceAlpha" type="matrix" values="0 0 0 0 0 0 0 0 0 0 0 0 0 0 0 0 0 0 127 0" result="hardAlpha"/>
<feOffset dx="1" dy="2"/>
<feGaussianBlur stdDeviation="3.5"/>
<feComposite in2="hardAlpha" operator="out"/>
<feColorMatrix type="matrix" values="0 0 0 0 0 0 0 0 0 0 0 0 0 0 0 0 0 0 0.25 0"/>
<feBlend mode="normal" in2="BackgroundImageFix" result="effect1_dropShadow_769:4903"/>
<feBlend mode="normal" in="SourceGraphic" in2="effect1_dropShadow_769:4903" result="shape"/>
</filter>
</defs>
</svg>
