<svg width="14" height="14" viewBox="0 0 14 14" fill="none" xmlns="http://www.w3.org/2000/svg">
<path d="M3.50071 6.99947C4.14507 6.99947 4.66743 6.47711 4.66743 5.83274C4.66743 5.18838 4.14507 4.66602 3.50071 4.66602C2.85634 4.66602 2.33398 5.18838 2.33398 5.83274C2.33398 6.47711 2.85634 6.99947 3.50071 6.99947Z" fill="#F0F2F2"/>
<path d="M11.0833 0C9.67278 0 8.4959 1.00205 8.22535 2.33328H1.16672C0.525175 2.33328 0 2.85845 0 3.5V12.8334C0 13.4746 0.525175 14 1.16672 14H10.5C11.1414 14 11.6667 13.4746 11.6667 12.8334V5.77448C12.9974 5.5041 14 4.32722 14 2.91672C14 1.30567 12.6938 0 11.0833 0ZM1.16672 3.5H8.22535C8.40368 4.37692 8.98187 5.1002 9.75485 5.4992L5.78323 9.96677L4.08327 8.267L1.16672 11.1835V3.5ZM10.5 12.8334H1.16672L4.08327 9.91655L5.83327 11.6665L10.5 6.41655V12.8334ZM12.8333 3.35422H11.5208V4.66672H10.6458V3.35422H9.33327V2.47922H10.6458V1.16672H11.5208V2.47922H12.8333V3.35422Z" fill="#F0F2F2"/>
</svg>
