<svg width="9" height="8" viewBox="0 0 9 8" fill="none" xmlns="http://www.w3.org/2000/svg">
<path d="M7.11938 0C6.66061 0 6.2014 0.176232 5.85256 0.527268L5.32526 1.05787C5.26546 1.11806 5.23186 1.19969 5.23186 1.2848C5.23186 1.36991 5.26546 1.45154 5.32526 1.51172C5.38507 1.57191 5.46619 1.60572 5.55077 1.60572C5.63535 1.60572 5.71647 1.57191 5.77628 1.51172L6.30026 0.981119C6.7563 0.522209 7.47915 0.522209 7.93519 0.981119C8.39122 1.44 8.39123 2.1641 7.93519 2.62299L6.00179 4.56855C5.54575 5.02746 4.82289 5.02746 4.36686 4.56855C4.0287 4.22826 3.94732 3.73716 4.1115 3.32045C4.13013 3.2809 4.14051 3.23792 4.14199 3.19417C4.14348 3.15042 4.13604 3.10683 4.12013 3.06608C4.10422 3.02534 4.08019 2.9883 4.04951 2.95727C4.01883 2.92624 3.98215 2.90186 3.94175 2.88564C3.90134 2.86942 3.85806 2.86171 3.81457 2.86297C3.77109 2.86424 3.72833 2.87446 3.68892 2.893C3.64951 2.91154 3.6143 2.93801 3.58545 2.97078C3.55661 3.00355 3.53474 3.04192 3.5212 3.08352C3.26615 3.73089 3.39947 4.49945 3.91915 5.0224C4.61683 5.72448 5.75181 5.72448 6.44949 5.0224L8.38289 3.07684C9.08058 2.37478 9.08058 1.22932 8.38289 0.527268C8.03405 0.176232 7.57815 0 7.11938 0ZM3.72349 1.49504C3.26472 1.49504 2.80551 1.67127 2.45667 2.02231L0.523266 3.96786C-0.174421 4.66993 -0.174423 5.81539 0.523266 6.51744C1.22095 7.21952 2.35592 7.21952 3.0536 6.51744L3.58089 5.98683C3.6407 5.92665 3.6743 5.84502 3.6743 5.7599C3.6743 5.67479 3.6407 5.59316 3.58089 5.53298C3.52108 5.47279 3.43997 5.43898 3.35538 5.43898C3.2708 5.43898 3.18968 5.47279 3.12988 5.53298L2.6059 6.06358C2.14986 6.5225 1.42701 6.5225 0.970966 6.06358C0.514934 5.6047 0.514931 4.88061 0.970966 4.42171L2.90437 2.47616C3.3604 2.01725 4.08327 2.01726 4.5393 2.47616C4.87746 2.81645 4.95883 3.30754 4.79466 3.72425C4.77603 3.76381 4.76565 3.80679 4.76416 3.85054C4.76268 3.89429 4.77012 3.93788 4.78603 3.97862C4.80193 4.01937 4.82597 4.0564 4.85665 4.08743C4.88733 4.11847 4.92401 4.14285 4.96441 4.15906C5.00482 4.17528 5.0481 4.183 5.09158 4.18173C5.13507 4.18047 5.17783 4.17025 5.21724 4.1517C5.25665 4.13316 5.29186 4.10669 5.32071 4.07392C5.34955 4.04116 5.37142 4.00279 5.38496 3.96119C5.64001 3.3138 5.50669 2.54527 4.987 2.02231C4.63816 1.67127 4.18227 1.49504 3.72349 1.49504Z" fill="black"/>
</svg>
