<svg width="32" height="32" viewBox="0 0 32 32" fill="none" xmlns="http://www.w3.org/2000/svg">
<g filter="url(#filter0_d_680:12780)">
<rect x="8" y="7" width="16" height="16" rx="4" fill="#F0F2F2"/>
</g>
<path d="M16.6968 15.0001L20.4069 11.2734C20.6057 11.0747 20.6057 10.76 20.4069 10.5778C20.2082 10.379 19.8935 10.379 19.7113 10.5778L16.0011 14.3045L12.2744 10.5778C12.0757 10.379 11.761 10.379 11.5788 10.5778C11.38 10.7765 11.38 11.0912 11.5788 11.2734L15.2889 15.0001L11.5788 18.7268C11.38 18.9256 11.38 19.2403 11.5788 19.4225C11.6781 19.5219 11.8106 19.5716 11.9266 19.5716C12.0425 19.5716 12.175 19.5219 12.2744 19.4225L16.0011 15.6958L19.7278 19.4225C19.8272 19.5219 19.9597 19.5716 20.0757 19.5716C20.1916 19.5716 20.3241 19.5219 20.4235 19.4225C20.6222 19.2237 20.6222 18.909 20.4235 18.7268L16.6968 15.0001Z" fill="#6727F2"/>
<defs>
<filter id="filter0_d_680:12780" x="0" y="0" width="32" height="32" filterUnits="userSpaceOnUse" color-interpolation-filters="sRGB">
<feFlood flood-opacity="0" result="BackgroundImageFix"/>
<feColorMatrix in="SourceAlpha" type="matrix" values="0 0 0 0 0 0 0 0 0 0 0 0 0 0 0 0 0 0 127 0" result="hardAlpha"/>
<feOffset dy="1"/>
<feGaussianBlur stdDeviation="4"/>
<feComposite in2="hardAlpha" operator="out"/>
<feColorMatrix type="matrix" values="0 0 0 0 0.403922 0 0 0 0 0.152941 0 0 0 0 0.94902 0 0 0 0.3 0"/>
<feBlend mode="normal" in2="BackgroundImageFix" result="effect1_dropShadow_680:12780"/>
<feBlend mode="normal" in="SourceGraphic" in2="effect1_dropShadow_680:12780" result="shape"/>
</filter>
</defs>
</svg>
