<svg width="8" height="9" viewBox="0 0 8 9" fill="none" xmlns="http://www.w3.org/2000/svg">
<path d="M6.95442 1.02583H4.92954V0.632361C4.92954 0.281049 4.65024 0 4.30113 0H2.90466C2.55554 0 2.27625 0.281049 2.27625 0.632361V1.02583H0.251364C0.111717 1.02583 0 1.13825 0 1.27877C0 1.4193 0.111717 1.53172 0.251364 1.53172H0.670305V7.65859C0.670305 8.26285 1.15907 8.75469 1.75955 8.75469H5.4602C6.06068 8.75469 6.54944 8.26285 6.54944 7.65859V1.51767H6.96838C7.10803 1.51767 7.21975 1.40525 7.21975 1.26472C7.21975 1.1242 7.09407 1.02583 6.95442 1.02583ZM2.76501 0.632361C2.76501 0.548046 2.83483 0.491836 2.90466 0.491836H4.30113C4.38491 0.491836 4.44077 0.562099 4.44077 0.632361V1.02583H2.76501V0.632361ZM6.04671 7.64454C6.04671 7.96775 5.78138 8.23475 5.4602 8.23475H1.74559C1.4244 8.23475 1.15907 7.96775 1.15907 7.64454V1.51767H6.04671V7.64454Z" fill="black"/>
</svg>
