<svg width="12" height="12" viewBox="0 0 12 12" fill="none" xmlns="http://www.w3.org/2000/svg">
<path d="M11.559 1.4061H8.19342V0.866774C8.19342 0.385233 7.72921 0 7.14894 0H4.82785C4.24758 0 3.78337 0.385233 3.78337 0.866774V1.4061H0.417795C0.185686 1.4061 0 1.56019 0 1.75281C0 1.94543 0.185686 2.09952 0.417795 2.09952H1.11412V10.4976C1.11412 11.3258 1.9265 12 2.92456 12H9.07543C10.0735 12 10.8859 11.3258 10.8859 10.4976V2.08026H11.5822C11.8143 2.08026 12 1.92616 12 1.73355C12 1.54093 11.7911 1.4061 11.559 1.4061ZM4.59574 0.866774C4.59574 0.751204 4.7118 0.674157 4.82785 0.674157H7.14894C7.2882 0.674157 7.38104 0.770466 7.38104 0.866774V1.4061H4.59574V0.866774ZM10.0503 10.4783C10.0503 10.9213 9.60928 11.2873 9.07543 11.2873H2.90135C2.3675 11.2873 1.9265 10.9213 1.9265 10.4783V2.08026H10.0503V10.4783Z" fill="#6727F2"/>
<path d="M7.19514 9.76488C7.42725 9.76488 7.61293 9.61079 7.61293 9.41817V3.63968C7.61293 3.44706 7.42725 3.29297 7.19514 3.29297C6.96303 3.29297 6.77734 3.44706 6.77734 3.63968V9.41817C6.80055 9.61079 6.96303 9.76488 7.19514 9.76488Z" fill="#6727F2"/>
<path d="M4.37873 9.76488C4.61084 9.76488 4.79653 9.61079 4.79653 9.41817V3.63968C4.79653 3.44706 4.61084 3.29297 4.37873 3.29297C4.14662 3.29297 3.96094 3.44706 3.96094 3.63968V9.41817C3.96094 9.61079 4.14662 9.76488 4.37873 9.76488Z" fill="#6727F2"/>
</svg>
