<svg width="20" height="20" viewBox="0 0 20 20" fill="none" xmlns="http://www.w3.org/2000/svg">
<path d="M10.0001 0C4.79274 0.000413146 0.446556 3.84131 0.0320935 8.80867C0.0127628 9.06959 0.00835925 9.33146 0 9.57043V18.8576C0 19.3381 0.330758 19.756 0.739077 19.9179C1.14739 20.0797 1.69021 20.0079 2.04521 19.6682L4.41404 17.4025C6.06907 18.4811 7.98709 19.1393 10.0001 19.1394C15.5144 19.1394 20.0002 14.8473 20.0002 9.57039C20.0002 4.29346 15.5145 0 10.0001 0ZM10.0001 1.42858C14.7078 1.42858 18.5075 5.06561 18.5075 9.57039C18.5075 14.0752 14.7078 17.7108 10.0001 17.7108C8.08989 17.7107 6.23518 17.0968 4.73475 15.9655C4.4377 15.7414 4.01246 15.7654 3.74495 16.0213L1.49275 18.1768V9.57039C1.50058 9.34434 1.51103 9.11821 1.52044 8.89238C1.87473 4.65525 5.55774 1.42894 10.0001 1.42858Z" fill="#414141"/>
</svg>
