<svg width="8" height="9" viewBox="0 0 8 9" fill="none" xmlns="http://www.w3.org/2000/svg">
<path d="M6.52727 8.05028H1.47273C1.08225 8.04989 0.707884 7.89363 0.431777 7.61579C0.155671 7.33795 0.000385083 6.96123 0 6.5683V1.48198C0.000385083 1.08906 0.155671 0.712333 0.431777 0.434491C0.707884 0.156649 1.08225 0.000387503 1.47273 0H4C4.09644 0 4.18894 0.0385524 4.25713 0.107176C4.32533 0.1758 4.36364 0.268873 4.36364 0.365922C4.36364 0.46297 4.32533 0.556044 4.25713 0.624668C4.18894 0.693291 4.09644 0.731844 4 0.731844H1.47273C1.27511 0.732134 1.08567 0.81126 0.94593 0.951875C0.806193 1.09249 0.727561 1.28312 0.727273 1.48198V6.5683C0.727561 6.76716 0.806193 6.95779 0.94593 7.09841C1.08567 7.23902 1.27511 7.31815 1.47273 7.31844H6.52727C6.72489 7.31815 6.91433 7.23902 7.05407 7.09841C7.19381 6.95779 7.27244 6.76716 7.27273 6.5683V4.02514C7.27273 3.92809 7.31104 3.83502 7.37923 3.76639C7.44743 3.69777 7.53992 3.65922 7.63636 3.65922C7.73281 3.65922 7.8253 3.69777 7.89349 3.76639C7.96169 3.83502 8 3.92809 8 4.02514V6.5683C7.99962 6.96123 7.84433 7.33795 7.56822 7.61579C7.29212 7.89363 6.91775 8.04989 6.52727 8.05028Z" fill="black"/>
<path d="M3.637 4.75639C3.56509 4.75638 3.4948 4.73491 3.43501 4.6947C3.37523 4.65449 3.32863 4.59735 3.30111 4.53049C3.2736 4.46364 3.2664 4.39008 3.28042 4.31911C3.29445 4.24813 3.32907 4.18294 3.37991 4.13177L7.37991 0.106625C7.44849 0.0399694 7.54034 0.00308636 7.63569 0.00392008C7.73103 0.00475381 7.82224 0.0432375 7.88966 0.111082C7.95708 0.178927 7.99532 0.270705 7.99615 0.366649C7.99698 0.462592 7.96033 0.555025 7.89409 0.624038L3.89409 4.64918C3.82591 4.71781 3.73343 4.75637 3.637 4.75639Z" fill="black"/>
</svg>
