<svg width="16" height="16" viewBox="0 0 16 16" fill="none" xmlns="http://www.w3.org/2000/svg">
<rect width="16" height="16" rx="4" fill="#F0F2F2"/>
<path d="M8.69677 8.00014L12.4069 4.27343C12.6057 4.07467 12.6057 3.75997 12.4069 3.57778C12.2082 3.37902 11.8935 3.37902 11.7113 3.57778L8.00112 7.30449L4.27441 3.57778C4.07565 3.37902 3.76095 3.37902 3.57876 3.57778C3.38 3.77654 3.38 4.09124 3.57876 4.27343L7.2889 8.00014L3.57876 11.7268C3.38 11.9256 3.38 12.2403 3.57876 12.4225C3.67813 12.5219 3.81064 12.5716 3.92658 12.5716C4.04252 12.5716 4.17503 12.5219 4.27441 12.4225L8.00112 8.69579L11.7278 12.4225C11.8272 12.5219 11.9597 12.5716 12.0757 12.5716C12.1916 12.5716 12.3241 12.5219 12.4235 12.4225C12.6222 12.2237 12.6222 11.909 12.4235 11.7268L8.69677 8.00014Z" fill="#6727F2"/>
</svg>
