<svg width="12" height="12" viewBox="0 0 12 12" fill="none" xmlns="http://www.w3.org/2000/svg">
<path d="M0 10.4984C0 11.3265 0.670363 12.0003 1.49434 12.0003H9.88033C10.7043 12.0003 11.3747 11.3265 11.3747 10.4984V7.83128C11.3747 7.66539 11.2409 7.53091 11.0758 7.53091C10.9107 7.53091 10.7769 7.66539 10.7769 7.83128V10.4984C10.7769 10.9952 10.3747 11.3995 9.88033 11.3995H1.49434C0.999955 11.3995 0.597737 10.9952 0.597737 10.4984V2.67083C0.597737 2.17395 0.999955 1.7697 1.49434 1.7697H4.14803C4.3131 1.7697 4.4469 1.63522 4.4469 1.46932C4.4469 1.30342 4.3131 1.16895 4.14803 1.16895H1.49434C0.670363 1.16895 0 1.84269 0 2.67083V10.4984Z" fill="#6727F2"/>
<path d="M10.3043 0C9.94502 0 9.6073 0.140607 9.35326 0.395897L4.0212 5.75487C3.98471 5.79155 3.95829 5.83708 3.94451 5.88707L3.24328 8.43114C3.21452 8.53543 3.24384 8.6472 3.31997 8.72374C3.37678 8.78084 3.45311 8.81172 3.53133 8.81172C3.55792 8.81172 3.58476 8.80815 3.61109 8.80082L6.14242 8.09604C6.19215 8.0822 6.23746 8.05564 6.27395 8.01897L11.606 2.65999C11.86 2.40467 11.9999 2.06524 11.9999 1.70419C11.9999 1.34314 11.86 1.00371 11.606 0.74842L11.2553 0.395897C11.0012 0.140607 10.6635 0 10.3043 0ZM4.67229 5.95009L9.03625 1.5641L10.4437 2.9786L6.07972 7.36459L4.67229 5.95009ZM4.39111 6.51708L5.51558 7.64719L3.96023 8.08024L4.39111 6.51708ZM11.4022 1.70419C11.4022 1.90478 11.3244 2.09336 11.1833 2.2352L10.8663 2.55378L9.45891 1.13927L9.77592 0.820661C9.91705 0.678823 10.1047 0.600725 10.3042 0.600725C10.5038 0.600725 10.6914 0.678853 10.8326 0.820661L11.1833 1.17318C11.3244 1.31505 11.4022 1.50363 11.4022 1.70419Z" fill="#6727F2"/>
</svg>
