<svg width="21" height="20" viewBox="0 0 21 20" fill="none" xmlns="http://www.w3.org/2000/svg">
<path d="M5.72713 7.14258C5.60965 7.14258 5.49699 7.21783 5.41392 7.35179C5.33085 7.48575 5.28418 7.66743 5.28418 7.85687C5.28418 8.04631 5.33085 8.22799 5.41392 8.36195C5.49699 8.49591 5.60965 8.57116 5.72713 8.57116H11.0322C11.1497 8.57116 11.2623 8.49591 11.3454 8.36195C11.4285 8.22799 11.4751 8.04631 11.4751 7.85687C11.4751 7.66743 11.4285 7.48575 11.3454 7.35179C11.2623 7.21783 11.1497 7.14258 11.0322 7.14258H5.72713Z" fill="#414141"/>
<path d="M6.03054 10.7148C5.83259 10.7148 5.64275 10.7901 5.50278 10.9241C5.36281 11.058 5.28418 11.2397 5.28418 11.4291C5.28418 11.6186 5.36281 11.8003 5.50278 11.9342C5.64275 12.0682 5.83259 12.1434 6.03054 12.1434H14.9781C15.1761 12.1434 15.3659 12.0682 15.5059 11.9342C15.6459 11.8003 15.7245 11.6186 15.7245 11.4291C15.7245 11.2397 15.6459 11.058 15.5059 10.9241C15.3659 10.7901 15.1761 10.7148 14.9781 10.7148H6.03054Z" fill="#414141"/>
<path d="M10.5001 0C5.29274 0.000413146 0.946556 3.84131 0.532094 8.80867C0.512763 9.06959 0.508359 9.33146 0.5 9.57043V18.8576C0.5 19.3381 0.830758 19.756 1.23908 19.9179C1.64739 20.0797 2.19021 20.0079 2.54521 19.6682L4.91404 17.4025C6.56907 18.4811 8.48709 19.1393 10.5001 19.1394C16.0144 19.1394 20.5002 14.8473 20.5002 9.57039C20.5002 4.29346 16.0145 0 10.5001 0ZM10.5001 1.42858C15.2078 1.42858 19.0075 5.06561 19.0075 9.57039C19.0075 14.0752 15.2078 17.7108 10.5001 17.7108C8.58989 17.7107 6.73518 17.0968 5.23475 15.9655C4.9377 15.7414 4.51246 15.7654 4.24495 16.0213L1.99275 18.1768V9.57039C2.00058 9.34434 2.01103 9.11821 2.02044 8.89238C2.37473 4.65525 6.05774 1.42894 10.5001 1.42858Z" fill="#414141"/>
</svg>
