<svg width="13" height="16" viewBox="0 0 13 16" fill="none" xmlns="http://www.w3.org/2000/svg">
<path d="M11.2278 2.46154H9.4549V1.84615C9.4549 1.35652 9.26811 0.886947 8.93562 0.540726C8.60313 0.194505 8.15217 0 7.68196 0H5.31804C4.84783 0 4.39687 0.194505 4.06438 0.540726C3.73189 0.886947 3.5451 1.35652 3.5451 1.84615V2.46154H1.77216C1.35444 2.46071 0.949917 2.61386 0.630242 2.89385C0.310566 3.17383 0.0963677 3.56259 0.0255836 3.99128C-0.0452004 4.41996 0.0319982 4.86089 0.243507 5.23598C0.455015 5.61107 0.787183 5.89611 1.18118 6.04062V12.9231C1.18212 13.7388 1.49374 14.5209 2.04769 15.0977C2.60163 15.6745 3.35268 15.999 4.13608 16H8.86392C9.64732 15.999 10.3984 15.6745 10.9523 15.0977C11.5063 14.5209 11.8179 13.7388 11.8188 12.9231V6.04062C12.2128 5.89611 12.545 5.61107 12.7565 5.23598C12.968 4.86089 13.0452 4.41996 12.9744 3.99128C12.9036 3.56259 12.6894 3.17383 12.3698 2.89385C12.0501 2.61386 11.6456 2.46071 11.2278 2.46154ZM4.72706 1.84615C4.72706 1.68294 4.78932 1.52642 4.90015 1.41101C5.01098 1.2956 5.1613 1.23077 5.31804 1.23077H7.68196C7.8387 1.23077 7.98902 1.2956 8.09985 1.41101C8.21068 1.52642 8.27294 1.68294 8.27294 1.84615V2.46154H4.72706V1.84615ZM10.6369 12.9231C10.6369 13.4127 10.4501 13.8823 10.1176 14.2285C9.78509 14.5747 9.33413 14.7692 8.86392 14.7692H4.13608C3.66587 14.7692 3.21491 14.5747 2.88242 14.2285C2.54993 13.8823 2.36314 13.4127 2.36314 12.9231V6.15385H10.6369V12.9231ZM11.2278 4.92308H1.77216C1.61542 4.92308 1.4651 4.85824 1.35427 4.74284C1.24344 4.62743 1.18118 4.4709 1.18118 4.30769C1.18118 4.14448 1.24344 3.98796 1.35427 3.87255C1.4651 3.75714 1.61542 3.69231 1.77216 3.69231H11.2278C11.3846 3.69231 11.5349 3.75714 11.6457 3.87255C11.7566 3.98796 11.8188 4.14448 11.8188 4.30769C11.8188 4.4709 11.7566 4.62743 11.6457 4.74284C11.5349 4.85824 11.3846 4.92308 11.2278 4.92308Z" fill="#6727F2"/>
<path d="M4.72575 12.9231C4.88248 12.9231 5.0328 12.8582 5.14363 12.7428C5.25446 12.6274 5.31673 12.4709 5.31673 12.3077V8.61538C5.31673 8.45217 5.25446 8.29565 5.14363 8.18024C5.0328 8.06483 4.88248 8 4.72575 8C4.56901 8 4.41869 8.06483 4.30786 8.18024C4.19703 8.29565 4.13477 8.45217 4.13477 8.61538V12.3077C4.13477 12.4709 4.19703 12.6274 4.30786 12.7428C4.41869 12.8582 4.56901 12.9231 4.72575 12.9231Z" fill="#6727F2"/>
<path d="M8.27262 12.9231C8.42936 12.9231 8.57968 12.8582 8.69051 12.7428C8.80134 12.6274 8.8636 12.4709 8.8636 12.3077V8.61538C8.8636 8.45217 8.80134 8.29565 8.69051 8.18024C8.57968 8.06483 8.42936 8 8.27262 8C8.11588 8 7.96556 8.06483 7.85473 8.18024C7.7439 8.29565 7.68164 8.45217 7.68164 8.61538V12.3077C7.68164 12.4709 7.7439 12.6274 7.85473 12.7428C7.96556 12.8582 8.11588 12.9231 8.27262 12.9231Z" fill="#6727F2"/>
</svg>
