<svg width="30" height="25" viewBox="0 0 30 25" fill="none" xmlns="http://www.w3.org/2000/svg">
<path d="M26.5379 7.79385C26.4512 7.78129 26.3633 7.77329 26.2754 7.76758C27.2741 10.0418 27.3433 12.6098 26.4685 14.9333C26.5564 14.9231 26.6431 14.9094 26.7298 14.8934C27.5767 14.7312 28.3378 14.2774 28.8778 13.6126C29.4177 12.9479 29.7014 12.1153 29.6784 11.2632C29.6553 10.4111 29.327 9.59473 28.7519 8.95942C28.1769 8.3241 27.3923 7.91107 26.5379 7.79385Z" fill="#202861"/>
<path d="M3.70186 7.79385C3.79521 7.78129 3.88976 7.77329 3.98438 7.76758C2.90953 10.0418 2.83503 12.6098 3.77649 14.9333C3.68193 14.9231 3.58859 14.9094 3.49525 14.8934C2.58381 14.7312 1.76461 14.2774 1.18348 13.6126C0.602356 12.9479 0.297012 12.1153 0.32181 11.2632C0.346609 10.4111 0.699934 9.59473 1.3189 8.95942C1.93786 8.3241 2.7823 7.91107 3.70186 7.79385Z" fill="#202861"/>
<path d="M15.13 0C8.72608 0.000508072 3.3812 4.7239 2.8715 10.8326C2.84773 11.1534 2.84231 11.4755 2.83203 11.7694V23.1904C2.83203 23.7812 3.23879 24.2952 3.74094 24.4943C4.24308 24.6933 4.91063 24.6049 5.34721 24.1872L8.26036 21.4009C10.2957 22.7274 12.6545 23.5367 15.13 23.5369C21.9115 23.5369 27.428 18.2587 27.428 11.7693C27.428 5.27994 21.9115 0 15.13 0ZM15.13 1.75682C20.9195 1.75682 25.5923 6.2295 25.5923 11.7693C25.5923 17.3091 20.9195 21.7801 15.13 21.7801C12.7809 21.7799 10.5 21.025 8.65477 19.6338C8.28946 19.3582 7.7665 19.3877 7.43753 19.7024L4.66779 22.3531V11.7693C4.67743 11.4913 4.69028 11.2132 4.70184 10.9355C5.13756 5.72484 9.66687 1.75725 15.13 1.75682Z" fill="#202861"/>
<path d="M20.2923 14.0586H9.96733C9.42277 14.0586 8.90051 13.8068 8.51545 13.3585C8.13038 12.9102 7.91406 12.3022 7.91406 11.6683C7.91406 11.0343 8.13038 10.4263 8.51545 9.97806C8.90051 9.52979 9.42277 9.27795 9.96733 9.27795H20.2923C20.8369 9.27795 21.3592 9.52979 21.7442 9.97806C22.1293 10.4263 22.3456 11.0343 22.3456 11.6683C22.3456 12.3022 22.1293 12.9102 21.7442 13.3585C21.3592 13.8068 20.8369 14.0586 20.2923 14.0586Z" fill="#202861"/>
<path d="M11.7607 12.9881C12.4893 12.9881 13.0799 12.3975 13.0799 11.6689C13.0799 10.9403 12.4893 10.3496 11.7607 10.3496C11.0321 10.3496 10.4414 10.9403 10.4414 11.6689C10.4414 12.3975 11.0321 12.9881 11.7607 12.9881Z" fill="#F2B705"/>
<path d="M18.497 12.9881C19.2256 12.9881 19.8162 12.3975 19.8162 11.6689C19.8162 10.9403 19.2256 10.3496 18.497 10.3496C17.7684 10.3496 17.1777 10.9403 17.1777 11.6689C17.1777 12.3975 17.7684 12.9881 18.497 12.9881Z" fill="#F2B705"/>
</svg>
