<svg width="14" height="18" viewBox="0 0 14 18" fill="none" xmlns="http://www.w3.org/2000/svg">
<path d="M12.9584 2.79C12.6822 2.79 12.4172 2.90141 12.2219 3.09973C12.0266 3.29805 11.9168 3.56703 11.9168 3.8475V8.415C11.9106 8.49071 11.8793 8.56205 11.8282 8.6175C11.8007 8.64899 11.7663 8.67353 11.7279 8.68916C11.6894 8.70479 11.6478 8.71107 11.6066 8.7075C11.5301 8.7075 11.4569 8.67668 11.4028 8.62183C11.3488 8.56697 11.3185 8.49258 11.3185 8.415V2.0025C11.3185 1.72203 11.2087 1.45305 11.0134 1.25473C10.818 1.05641 10.5531 0.945 10.2769 0.945C10.0006 0.945 9.73568 1.05641 9.54035 1.25473C9.34501 1.45305 9.23527 1.72203 9.23527 2.0025V7.6725C9.22903 7.75493 9.1981 7.83344 9.14662 7.8975C9.08627 7.95432 9.00731 7.98639 8.92501 7.9875C8.88524 7.98762 8.84587 7.97938 8.80939 7.96329C8.77291 7.9472 8.7401 7.92362 8.71304 7.89403C8.68597 7.86444 8.66524 7.82948 8.65214 7.79136C8.63903 7.75323 8.63385 7.71276 8.63691 7.6725V1.0575C8.63691 0.918627 8.60997 0.781114 8.55762 0.652812C8.50528 0.524511 8.42855 0.407933 8.33183 0.309735C8.23511 0.211537 8.12029 0.133642 7.99392 0.0804974C7.86755 0.027353 7.7321 0 7.59532 0C7.45853 0 7.32309 0.027353 7.19672 0.0804974C7.07034 0.133642 6.95552 0.211537 6.8588 0.309735C6.76208 0.407933 6.68536 0.524511 6.63301 0.652812C6.58067 0.781114 6.55372 0.918627 6.55372 1.0575V7.8525C6.54749 7.93493 6.51655 8.01344 6.46508 8.0775C6.40473 8.13432 6.32576 8.16639 6.24346 8.1675C6.20369 8.16762 6.16432 8.15938 6.12784 8.14329C6.09136 8.12721 6.05856 8.10362 6.03149 8.07403C6.00443 8.04444 5.98369 8.00948 5.97059 7.97136C5.95749 7.93323 5.9523 7.89276 5.95536 7.8525V2.3625C5.95536 2.08203 5.84562 1.81305 5.65029 1.61473C5.45495 1.41641 5.19002 1.305 4.91377 1.305C4.63752 1.305 4.37259 1.41641 4.17725 1.61473C3.98192 1.81305 3.87218 2.08203 3.87218 2.3625V10.8675L2.43168 8.91C2.32845 8.76324 2.19729 8.63896 2.04597 8.54451C1.89464 8.45006 1.72621 8.38735 1.55062 8.36009C1.37503 8.33282 1.19584 8.34155 1.02363 8.38577C0.851413 8.42998 0.68967 8.50877 0.547949 8.6175V8.6175C0.260914 8.83305 0.06952 9.15514 0.0155441 9.51345C-0.0384319 9.87176 0.0493932 10.2372 0.259849 10.53L3.6284 15.1875C5.29052 17.46 6.66453 18 8.32665 18H9.54553C10.7269 18 11.8599 17.5235 12.6953 16.6754C13.5307 15.8273 14 14.6769 14 13.4775V3.8475C14 3.70863 13.9731 3.57111 13.9207 3.44281C13.8684 3.31451 13.7916 3.19793 13.6949 3.09973C13.5982 3.00154 13.4834 2.92364 13.357 2.8705C13.2306 2.81735 13.0952 2.79 12.9584 2.79V2.79Z" fill="black"/>
</svg>
