<svg width="33" height="29" viewBox="0 0 33 29" fill="none" xmlns="http://www.w3.org/2000/svg">
<path d="M29.4689 9.25191C29.3714 9.23745 29.2726 9.22825 29.1738 9.22168C30.2964 11.8382 30.3742 14.7927 29.3909 17.466C29.4897 17.4542 29.5872 17.4384 29.6847 17.42C30.6365 17.2334 31.4921 16.7113 32.099 15.9465C32.7059 15.1817 33.0248 14.2238 32.9989 13.2435C32.973 12.2631 32.604 11.3238 31.9576 10.5929C31.3111 9.86196 30.4292 9.38677 29.4689 9.25191Z" fill="#6727F2"/>
<path d="M3.80159 9.25191C3.90651 9.23745 4.01279 9.22825 4.11914 9.22168C2.91097 11.8382 2.82723 14.7927 3.88547 17.466C3.77918 17.4542 3.67427 17.4384 3.56935 17.42C2.54485 17.2334 1.62404 16.7113 0.970827 15.9465C0.317616 15.1817 -0.0256033 14.2238 0.00227118 13.2435C0.0301456 12.2631 0.427298 11.3238 1.12304 10.5929C1.81878 9.86196 2.76796 9.38677 3.80159 9.25191Z" fill="#6727F2"/>
<path d="M16.6457 0.285156C9.44742 0.285741 3.43955 5.72007 2.86663 12.7482C2.83991 13.1173 2.83382 13.4878 2.82227 13.8259V26.966C2.82227 27.6458 3.27948 28.2371 3.84391 28.4661C4.40834 28.6951 5.1587 28.5934 5.64942 28.1128L8.92392 24.9072C11.2117 26.4333 13.8631 27.3645 16.6457 27.3647C24.2683 27.3647 30.4691 21.292 30.4691 13.8259C30.4691 6.35979 24.2684 0.285156 16.6457 0.285156ZM16.6457 2.3064C23.1533 2.3064 28.4057 7.45228 28.4057 13.8259C28.4057 20.1995 23.1533 25.3434 16.6457 25.3434C14.0052 25.3432 11.4413 24.4747 9.36726 22.8741C8.95664 22.5571 8.36881 22.591 7.99903 22.9531L4.88573 26.0027V13.8259C4.89657 13.5061 4.91101 13.1861 4.92401 12.8666C5.41377 6.87167 10.5049 2.3069 16.6457 2.3064Z" fill="#6727F2"/>
<path d="M22.4469 16.458H10.8412C10.229 16.458 9.64201 16.1683 9.20918 15.6525C8.77636 15.1368 8.5332 14.4373 8.5332 13.7079C8.5332 12.9785 8.77636 12.279 9.20918 11.7633C9.64201 11.2476 10.229 10.9578 10.8412 10.9578H22.4469C23.059 10.9578 23.646 11.2476 24.0789 11.7633C24.5117 12.279 24.7549 12.9785 24.7549 13.7079C24.7549 14.4373 24.5117 15.1368 24.0789 15.6525C23.646 16.1683 23.059 16.458 22.4469 16.458Z" fill="#6727F2"/>
<path d="M12.8579 15.229C13.6769 15.229 14.3408 14.5494 14.3408 13.7112C14.3408 12.8729 13.6769 12.1934 12.8579 12.1934C12.0389 12.1934 11.375 12.8729 11.375 13.7112C11.375 14.5494 12.0389 15.229 12.8579 15.229Z" fill="url(#paint0_linear_635:18525)"/>
<path d="M20.4302 15.229C21.2491 15.229 21.913 14.5494 21.913 13.7112C21.913 12.8729 21.2491 12.1934 20.4302 12.1934C19.6112 12.1934 18.9473 12.8729 18.9473 13.7112C18.9473 14.5494 19.6112 15.229 20.4302 15.229Z" fill="url(#paint1_linear_635:18525)"/>
<defs>
<linearGradient id="paint0_linear_635:18525" x1="11.5295" y1="12.3198" x2="14.4069" y2="15.162" gradientUnits="userSpaceOnUse">
<stop stop-color="#04BFBF"/>
<stop offset="1" stop-color="#04D9B2"/>
</linearGradient>
<linearGradient id="paint1_linear_635:18525" x1="19.1017" y1="12.3198" x2="21.9792" y2="15.162" gradientUnits="userSpaceOnUse">
<stop stop-color="#04BFBF"/>
<stop offset="1" stop-color="#04D9B2"/>
</linearGradient>
</defs>
</svg>
