<svg width="16" height="16" viewBox="0 0 16 16" fill="none" xmlns="http://www.w3.org/2000/svg">
<path d="M15.7742 2.42079L12.8614 0.123402C12.7493 0.0391744 12.6118 -0.00424661 12.4716 0.000327766H2.66663C1.9594 0.000327766 1.28113 0.281273 0.781038 0.78136C0.280948 1.28145 0 1.95971 0 2.66694V13.3334C0 14.0406 0.280948 14.7189 0.781038 15.219C1.28113 15.7191 1.9594 16 2.66663 16H13.3332C14.0404 16 14.7187 15.7191 15.2188 15.219C15.7188 14.7189 15.9998 14.0406 15.9998 13.3334V2.91309C16.0022 2.81926 15.9831 2.72611 15.944 2.64079C15.9049 2.55546 15.8468 2.48021 15.7742 2.42079ZM4.4102 1.23107H10.7691V5.23099H4.4102V1.23107ZM14.769 13.3334C14.769 13.7142 14.6178 14.0794 14.3485 14.3487C14.0792 14.618 13.714 14.7693 13.3332 14.7693H2.66663C2.28581 14.7693 1.92059 14.618 1.65131 14.3487C1.38203 14.0794 1.23075 13.7142 1.23075 13.3334V2.66694C1.23075 2.28612 1.38203 1.92091 1.65131 1.65163C1.92059 1.38235 2.28581 1.23107 2.66663 1.23107H3.17945V5.84636C3.17945 6.00957 3.24428 6.16609 3.35969 6.2815C3.47509 6.3969 3.63161 6.46173 3.79482 6.46173H11.3845C11.5477 6.46173 11.7042 6.3969 11.8196 6.2815C11.935 6.16609 11.9998 6.00957 11.9998 5.84636V1.23107H12.2665L14.769 3.20026V13.3334Z" fill="#6727F2"/>
<path d="M7.59046 7.7959C7.06305 7.7959 6.54749 7.95229 6.10896 8.2453C5.67044 8.53831 5.32865 8.95478 5.12681 9.44204C4.92498 9.9293 4.87218 10.4655 4.97507 10.9827C5.07796 11.5 5.33193 11.9752 5.70487 12.3481C6.0778 12.721 6.55295 12.975 7.07023 13.0779C7.5875 13.1808 8.12367 13.128 8.61094 12.9261C9.0982 12.7243 9.51467 12.3825 9.80769 11.944C10.1007 11.5055 10.2571 10.9899 10.2571 10.4625C10.2571 9.75528 9.97615 9.07702 9.47606 8.57693C8.97597 8.07684 8.2977 7.7959 7.59046 7.7959ZM7.59046 11.8984C7.30647 11.8984 7.02886 11.8142 6.79273 11.6564C6.5566 11.4986 6.37256 11.2744 6.26388 11.012C6.1552 10.7496 6.12677 10.4609 6.18217 10.1824C6.23758 9.90386 6.37433 9.64801 6.57514 9.4472C6.77595 9.24639 7.0318 9.10964 7.31034 9.05423C7.58887 8.99883 7.87758 9.02726 8.13995 9.13594C8.40232 9.24462 8.62657 9.42866 8.78435 9.66478C8.94213 9.90091 9.02634 10.1785 9.02634 10.4625C9.02634 10.8433 8.87506 11.2085 8.60578 11.4778C8.3365 11.7471 7.97128 11.8984 7.59046 11.8984Z" fill="#6727F2"/>
</svg>
