<svg width="36" height="36" viewBox="0 0 36 36" fill="none" xmlns="http://www.w3.org/2000/svg">
<rect x="0.25" y="35.749" width="35.5" height="35.5" rx="4.75" transform="rotate(-90 0.25 35.749)" stroke="#6727F2" stroke-width="0.5"/>
<path d="M21.6364 29.999L22.1818 29.4536L24 27.6354L24.5454 27.0899L24 26.5445C23.2906 25.8351 23.2906 24.7084 24 23.999C24.7094 23.2897 25.8361 23.2897 26.5454 23.999L27.0909 24.5445L27.6363 23.999L29.4545 22.1808L30 21.6354L29.4545 21.0899L14.9091 6.5445L14.3636 5.99902L13.8182 6.5445L12 8.36266L11.4545 8.90811L12 9.45359C12.7094 10.1629 12.7094 11.2896 12 11.999C11.2907 12.7084 10.1639 12.7084 9.45454 11.999L8.90909 11.4536L8.36363 11.999L6.54546 13.8172L6 14.3627L6.54546 14.9081L21.0909 29.4536L21.6364 29.999ZM21.6364 27.8172L12.1818 18.3627L18.3636 12.1809L27.8182 21.6354L27.017 22.4365C25.7302 21.6468 24.0202 21.797 22.9091 22.9081C21.798 24.0192 21.642 25.7349 22.4318 27.0218L21.6364 27.8172ZM11.0909 17.2718L8.18182 14.3627L8.97727 13.5672C10.2641 14.357 11.9798 14.201 13.0909 13.0899C14.202 11.9788 14.3523 10.2688 13.5625 8.98198L14.3636 8.18085L17.2727 11.0899L11.0909 17.2718Z" fill="#6727F2"/>
</svg>
