<svg width="36" height="36" viewBox="0 0 36 36" fill="none" xmlns="http://www.w3.org/2000/svg">
<rect x="0.25" y="0.25" width="35.5" height="35.5" rx="4.75" stroke="#6727F2" stroke-width="0.5"/>
<path d="M18 30C15.6266 30 13.3066 29.2962 11.3332 27.9776C9.35977 26.6591 7.8217 24.7849 6.91345 22.5922C6.0052 20.3995 5.76756 17.9867 6.23058 15.6589C6.6936 13.3311 7.83649 11.193 9.51472 9.51472C11.193 7.83649 13.3311 6.6936 15.6589 6.23058C17.9867 5.76756 20.3995 6.0052 22.5922 6.91345C24.7849 7.8217 26.6591 9.35977 27.9776 11.3332C29.2962 13.3066 30 15.6266 30 18C29.9962 21.1814 28.7307 24.2315 26.4811 26.4811C24.2315 28.7307 21.1814 29.9962 18 30ZM18 7.50001C15.9233 7.50001 13.8932 8.11582 12.1665 9.26957C10.4398 10.4233 9.09399 12.0632 8.29927 13.9818C7.50455 15.9005 7.29661 18.0117 7.70176 20.0485C8.1069 22.0853 9.10693 23.9562 10.5754 25.4246C12.0438 26.8931 13.9148 27.8931 15.9516 28.2982C17.9884 28.7034 20.0996 28.4955 22.0182 27.7007C23.9368 26.906 25.5767 25.5602 26.7304 23.8335C27.8842 22.1068 28.5 20.0767 28.5 18C28.497 15.2161 27.3898 12.5472 25.4213 10.5787C23.4528 8.61019 20.7839 7.50298 18 7.50001Z" fill="#6727F2"/>
<path d="M17.9827 21.015C18.4459 21.0214 18.8884 21.2082 19.216 21.5359C19.5436 21.8635 19.7305 22.306 19.7369 22.7692C19.7262 23.2278 19.5368 23.664 19.2091 23.985C18.8814 24.3059 18.4414 24.4862 17.9827 24.4875C17.5286 24.4818 17.0948 24.299 16.7737 23.978C16.4525 23.657 16.2695 23.2232 16.2637 22.7692C16.2653 22.3105 16.4458 21.8706 16.7669 21.543C17.0879 21.2153 17.5241 21.0259 17.9827 21.015ZM17.2694 19.0417L16.3739 13.9417V11.859C16.3773 11.7681 16.4148 11.6818 16.4791 11.6174C16.5433 11.553 16.6295 11.5153 16.7204 11.5117H19.2802C19.3712 11.5149 19.4576 11.5525 19.5219 11.617C19.5862 11.6815 19.6237 11.7679 19.6267 11.859V13.9065L18.7312 19.0417C18.7138 19.1219 18.6703 19.1941 18.6074 19.2469C18.5446 19.2997 18.4659 19.3302 18.3839 19.3335H17.6167C17.5349 19.3294 17.4566 19.2987 17.3939 19.246C17.3312 19.1934 17.2875 19.1216 17.2694 19.0417Z" fill="#6727F2"/>
</svg>
