<svg width="36" height="36" viewBox="0 0 36 36" fill="none" xmlns="http://www.w3.org/2000/svg">
<rect x="0.25" y="0.25" width="35.5" height="35.5" rx="4.75" stroke="#6727F2" stroke-width="0.5"/>
<path d="M16.0408 6.41167C21.9553 4.69693 28.0345 8.49557 29.6194 14.8956C31.2045 21.2966 27.6941 27.8755 21.7799 29.5912C19.1466 30.354 16.3572 30.0423 13.9235 28.7146C12.29 29.1987 7.33405 30.2023 6.28047 28.9444C6.2792 28.9455 5.60426 28.2794 6.35296 27.5517L9.55724 24.4408C8.95224 23.4128 8.49253 22.2833 8.20164 21.1067C6.61683 14.706 10.1269 8.12709 16.0411 6.41167H16.0408ZM15.1249 20.0102L16.9943 19.8093C17.2069 21.0857 17.832 21.7748 19.0598 21.7748C19.8676 21.7748 20.9183 21.4197 20.9183 20.3615C20.9183 19.2595 19.2775 19.0565 18.5079 18.848C16.9933 18.4368 15.4832 17.7171 15.4832 15.7533C15.4832 14.001 16.7619 13.153 18.1744 12.9365V11.7847H19.7903V12.9403C21.3205 13.1702 22.499 14.0719 22.5626 16.0216L20.6398 16.0935C20.4697 14.9843 19.9223 14.6014 18.9123 14.6014C18.327 14.6014 17.3122 14.7899 17.3122 15.6157C17.3122 16.503 18.76 16.7778 19.3542 16.9299C21.1971 17.3992 22.8407 17.9913 22.8407 20.3487C22.8407 22.3851 21.393 23.2762 19.7903 23.4785V24.5623H18.1744V23.4644C16.4513 23.2119 15.3598 22.1416 15.1249 20.0102ZM16.5012 8.27194C11.5359 9.71109 8.58855 15.2344 9.91934 20.6081C10.2207 21.825 10.7199 22.9628 11.4104 23.9777C11.7149 24.3741 11.6774 24.9628 11.3194 25.3085L8.90424 27.6536C9.79917 27.8497 12.8102 27.0676 13.7423 26.7773C13.9677 26.6954 14.2227 26.7116 14.4481 26.8447C16.5593 28.0922 18.9965 28.4053 21.3195 27.7313C26.2851 26.2915 29.2315 20.7681 27.901 15.3944C26.5702 10.0204 21.4664 6.83175 16.5012 8.27194Z" fill="#6727F2"/>
</svg>
